<svg width="231" height="87" viewBox="0 0 231 87" fill="none" xmlns="http://www.w3.org/2000/svg">
<rect y="33.7125" width="8.7" height="14.1375" fill="#84CD76"/>
<path d="M26.1001 5C26.1001 2.23858 28.3387 0 31.1001 0H34.8001V21.75C34.8001 24.1524 32.8525 26.1 30.4501 26.1C28.0477 26.1 26.1001 24.1524 26.1001 21.75V5Z" fill="#84CD76"/>
<rect x="47.3062" y="78.3" width="8.7" height="9.24375" transform="rotate(90 47.3062 78.3)" fill="#84CD76"/>
<rect x="26.1001" y="54.9188" width="8.7" height="10.875" fill="#C6E1A7"/>
<path d="M26.1001 61.55C26.1001 58.7886 28.3387 56.55 31.1001 56.55H34.8001V87H31.1001C28.3387 87 26.1001 84.7614 26.1001 82V61.55Z" fill="#A7D88E"/>
<path d="M29.9062 87V78.3H43.5V82C43.5 84.7614 41.2614 87 38.5 87H29.9062Z" fill="#A7D88E"/>
<rect x="34.8003" y="8.70001" width="8.7" height="14.1375" transform="rotate(-90 34.8003 8.70001)" fill="#84CD76"/>
<path d="M52.1997 30.45V34.15C52.1997 36.9114 49.9611 39.15 47.1997 39.15H3.26221V30.45L52.1997 30.45Z" fill="#C6E1A7"/>
<path d="M0 33.1688H8.7V47.85H5C2.23858 47.85 0 45.6114 0 42.85V33.1688Z" fill="#A7D88E"/>
<path d="M0 39.15L0 35.45C0 32.6885 2.23858 30.45 5 30.45H12.4C15.1614 30.45 17.4 32.6885 17.4 35.45V39.15H0Z" fill="#A7D88E"/>
<rect x="43.5" y="6.52496" width="8.7" height="11.4187" fill="#DFEBC0"/>
<path d="M43.5 65.25C43.5 62.8475 45.4476 60.9 47.85 60.9C50.2524 60.9 52.2 62.8475 52.2 65.25V82C52.2 84.7614 49.9614 87 47.2 87H43.5V65.25Z" fill="#84CD76"/>
<path d="M78.3003 47.85V56.55H26.1003V52.85C26.1003 50.0886 28.3389 47.85 31.1003 47.85H78.3003Z" fill="#C6E1A7"/>
<rect x="43.5" y="20.1187" width="8.7" height="12.5062" fill="#C6E1A7"/>
<rect x="69.6001" y="34.8" width="8.7" height="14.1375" fill="#84CD76"/>
<path d="M69.6001 39.15H73.3001C76.0615 39.15 78.3001 41.3885 78.3001 44.15V56.55H69.6001V39.15Z" fill="#A7D88E"/>
<path d="M17.4 47.85C19.8024 47.85 21.75 49.7976 21.75 52.2C21.75 54.6025 19.8024 56.55 17.4 56.55H5C2.23858 56.55 0 54.3115 0 51.55V47.85H17.4Z" fill="#84CD76"/>
<path d="M34.8003 8.70001V5.00001C34.8003 2.23859 37.0389 1.23978e-05 39.8003 1.23978e-05L47.2003 1.23978e-05C49.9617 1.23978e-05 52.2003 2.23859 52.2003 5.00001V8.70001L34.8003 8.70001Z" fill="#A7D88E"/>
<path d="M65.8999 56.55C63.1385 56.55 60.8999 54.3114 60.8999 51.55V47.85H78.2999V56.55H65.8999Z" fill="#A7D88E"/>
<path d="M73.3003 30.45C76.0617 30.45 78.3003 32.6886 78.3003 35.45V39.15H60.9003C58.4979 39.15 56.5503 37.2025 56.5503 34.8C56.5503 32.3976 58.4979 30.45 60.9003 30.45H73.3003Z" fill="#84CD76"/>
<path d="M43.5 8.70001L52.2 8.70001V25.45C52.2 28.2114 49.9614 30.45 47.2 30.45H43.5V8.70001Z" fill="#A7D88E"/>
<path d="M88.226 56V35.588H94.274V38.36H94.358C95.198 36.764 97.256 35.084 100.322 35.084C103.178 35.084 105.53 36.26 106.622 38.738C108.092 36.134 110.066 35.084 113.09 35.084C118.634 35.084 120.314 38.99 120.314 43.946V56H114.014V44.114C114.014 42.224 113.3 40.628 111.242 40.628C108.344 40.628 107.42 42.686 107.42 45.206V56H101.12V45.206C101.12 43.694 101.204 40.628 98.306 40.628C95.03 40.628 94.526 43.19 94.526 45.836V56H88.226ZM141.781 49.238L146.191 52.472C144.175 55.034 140.857 56.504 137.581 56.504C131.281 56.504 126.241 52.304 126.241 45.794C126.241 39.284 131.281 35.084 137.581 35.084C143.461 35.084 147.157 39.284 147.157 45.794V47.768H132.541C133.045 50.162 134.851 51.716 137.287 51.716C139.345 51.716 140.731 50.666 141.781 49.238ZM132.541 43.484H140.857C140.899 41.384 139.261 39.62 136.993 39.62C134.221 39.62 132.709 41.51 132.541 43.484ZM174.508 24.248V56H168.712V53.312H168.628C167.662 54.782 165.226 56.504 162.37 56.504C156.322 56.504 152.332 52.136 152.332 45.962C152.332 40.292 155.86 35.084 161.656 35.084C164.26 35.084 166.696 35.798 168.124 37.772H168.208V24.248H174.508ZM168.712 45.794C168.712 42.728 166.822 40.628 163.672 40.628C160.522 40.628 158.632 42.728 158.632 45.794C158.632 48.86 160.522 50.96 163.672 50.96C166.822 50.96 168.712 48.86 168.712 45.794Z" fill="#5EC261"/>
<path d="M194.453 56V53.438H194.369C192.983 55.622 190.463 56.504 187.901 56.504C184.079 56.504 180.635 54.32 180.635 50.204C180.635 43.148 189.203 43.022 194.453 43.022C194.453 40.796 192.605 39.368 190.421 39.368C188.363 39.368 186.641 40.292 185.297 41.804L181.937 38.36C184.247 36.176 187.607 35.084 190.925 35.084C198.275 35.084 200.249 38.822 200.249 45.626V56H194.453ZM194.453 47.054H192.899C190.967 47.054 186.683 47.222 186.683 49.994C186.683 51.506 188.279 52.22 189.665 52.22C192.143 52.22 194.453 50.918 194.453 48.398V47.054ZM206.89 65.576V35.588H212.686V38.276H212.77C213.736 36.806 216.172 35.084 219.028 35.084C225.076 35.084 229.066 39.452 229.066 45.626C229.066 51.296 225.538 56.504 219.742 56.504C217.138 56.504 214.702 55.79 213.274 53.816H213.19V65.576H206.89ZM212.686 45.794C212.686 48.86 214.576 50.96 217.726 50.96C220.876 50.96 222.766 48.86 222.766 45.794C222.766 42.728 220.876 40.628 217.726 40.628C214.576 40.628 212.686 42.728 212.686 45.794Z" fill="#84CD76"/>
</svg>
